<?xml version="1.0"?>
<svg version="1.1" xmlns="http://www.w3.org/2000/svg" width="400px" height="200px" style="border: dashed 2px #aaa"><path fill="#2e9be8" d="M131,92.20703125q0-0.2734375,0.380859375-0.419921875t0.498046875-0.146484375l0.72265625-0.1171875q0.72265625-0.1171875,1.46484375-0.205078125t1.4453125-0.166015625q2.48046875-0.3125,4.9609375-0.615234375t5-0.302734375q0.1953125,0,0.537109375,0.01953125t0.68359375,0.107421875t0.5859375,0.244140625t0.244140625,0.4296875q0,0.1953125-0.185546875,0.341796875t-0.439453125,0.224609375t-0.517578125,0.09765625t-0.419921875,0.01953125l-0.341796875,0t-0.341796875-0.078125q-1.03515625,0-2.041015625,0.09765625t-2.041015625,0.17578125q0.2734375,0.3125,0.29296875,0.87890625t0.0390625,0.9765625q0,6.9140625,0.09765625,13.75t0.17578125,13.80859375l0,0.0390625q-0.64453125,0.56640625-1.103515625,0.72265625t-0.927734375,0.15625q-0.44921875,0-0.908203125-0.166015625t-1.103515625-0.712890625l0-0.0390625l0.15625-15.33203125q0-1.5234375-0.0390625-3.359375t-0.0390625-3.720703125t0.05859375-3.642578125t0.3125-3.06640625q-1.15234375,0.1171875-2.44140625,0.3515625q-1.11328125,0.1953125-2.12890625,0.1953125l-0.3515625,0q-0.078125,0-0.458984375,0.01953125t-0.78125-0.01953125t-0.72265625-0.15625t-0.322265625-0.390625z M149.9193359375,113.0859375q0-1.11328125,0.283203125-2.294921875t0.8984375-2.12890625t1.552734375-1.54296875t2.265625-0.595703125q0.99609375,0,2.099609375,0.341796875t2.021484375,0.9765625t1.494140625,1.552734375t0.576171875,2.05078125q0,1.3671875-0.498046875,2.59765625t-1.396484375,2.197265625t-2.099609375,1.5234375t-2.607421875,0.556640625q-1.15234375,0-2.01171875-0.419921875t-1.435546875-1.123046875t-0.859375-1.66015625t-0.283203125-2.03125z M152.7904296875,113.046875q0,0.3515625,0.107421875,1.03515625t0.322265625,1.337890625t0.556640625,1.1328125t0.830078125,0.439453125q1.03515625-0.1171875,1.708984375-0.673828125t1.09375-1.357421875t0.5859375-1.73828125t0.166015625-1.77734375q0-1.07421875-0.419921875-1.796875t-1.376953125-1.171875q0,0.0390625,0.0390625,0.0390625t0.0390625-0.0390625l-0.48828125-0.1171875q-0.1953125-0.078125-0.478515625-0.17578125t-0.556640625-0.4296875q-0.76171875,0.2734375-1.181640625,0.703125t-0.634765625,1.044921875t-0.263671875,1.474609375t-0.048828125,2.0703125z M163.916796875,110.99609375q0-0.390625,0.087890625-1.03515625t0.205078125-1.279296875t0.2734375-1.181640625t0.37109375-0.703125q0.15625-0.15625,0.537109375-0.3125t0.80078125-0.224609375t0.78125,0.05859375t0.439453125,0.517578125q-0.2734375,0.3515625-0.498046875,1.201171875t-0.341796875,1.884765625q-0.09765625,0.87890625-0.09765625,1.81640625l0,0.33203125q0.01953125,1.09375,0.1953125,2.01171875t0.537109375,1.513671875t1.005859375,0.595703125q1.3671875,0,2.5-1.259765625t2.01171875-3.076171875t1.54296875-3.857421875t1.1328125-3.564453125q0.1171875-0.44921875,0.556640625-0.60546875t0.947265625-0.107421875t0.908203125,0.244140625t0.478515625,0.46875q-0.390625,3.28125-0.615234375,6.5625t-0.224609375,6.6015625q0,0.64453125,0.05859375,1.181640625t-0.05859375,0.91796875t-0.517578125,0.60546875t-1.279296875,0.224609375q-0.1953125,0-0.498046875-0.0390625t-0.625-0.126953125t-0.546875-0.263671875t-0.224609375-0.41015625q0-1.4453125,0.107421875-2.96875t0.302734375-2.94921875q-0.52734375,0.76171875-1.162109375,1.513671875t-1.396484375,1.357421875t-1.640625,0.966796875t-1.89453125,0.361328125q-1.4453125,0-2.275390625-0.68359375t-1.25-1.708984375t-0.52734375-2.236328125t-0.107421875-2.34375z M182.2892578125,107.24609375q0-0.80078125,0.283203125-1.34765625t1.201171875-0.546875q0.3515625,0,0.87890625,0.107421875t0.60546875,0.537109375q0.1953125,1.15234375,0.21484375,2.5t0.13671875,2.5390625q0.44921875-0.87890625,1.15234375-1.89453125t1.6015625-1.875t1.953125-1.42578125t2.1484375-0.56640625q0.078125,0,0.29296875,0.05859375t0.400390625,0.166015625t0.224609375,0.244140625t-0.21484375,0.25390625q-0.078125,0.234375-0.33203125,0.283203125t-0.44921875,0.048828125q-0.1171875,0-0.37109375-0.09765625q-1.4453125,0.76171875-2.4609375,2.0703125t-1.66015625,2.900390625t-0.9375,3.359375t-0.29296875,3.447265625q0,0.83984375-0.380859375,1.015625t-1.220703125,0.17578125q-0.44921875,0-0.947265625-0.09765625t-0.693359375-0.625q-0.3515625-1.11328125-0.576171875-2.55859375t-0.341796875-2.978515625t-0.166015625-3.017578125t-0.048828125-2.67578125z M196.09140625,96.513671875q-0.0390625-0.517578125,0.087890625-0.9765625t0.478515625-0.76171875t1.19140625-0.302734375q0.1953125,0,0.478515625,0.0390625t0.56640625,0.126953125t0.458984375,0.244140625t0.17578125,0.4296875q0,0.72265625,0.048828125,1.904296875t0.126953125,2.4609375t0.146484375,2.5t0.126953125,1.982421875q1.5234375-0.078125,3.06640625-0.078125t3.046875-0.078125l2.6953125-0.078125l0-1.93359375q0-3.2421875-0.126953125-6.494140625t-0.439453125-6.494140625q0-0.234375,0.1953125-0.380859375t0.458984375-0.224609375t0.546875-0.09765625t0.439453125-0.01953125q0.44921875,0,0.966796875,0.13671875t0.595703125,0.5859375l0.1171875,0.83984375q0.48828125,3.515625,0.6640625,6.953125t0.25390625,6.875q0.234375,0.0390625,0.498046875,0.126953125t0.537109375,0.166015625q0.1953125,0.078125,0.556640625,0.234375t0.361328125,0.48828125q0,0.3125-0.2734375,0.48828125t-0.615234375,0.263671875t-0.6640625,0.107421875t-0.400390625,0.01953125q0.0390625,1.4453125,0.0390625,2.880859375l0,2.880859375l0,6.30859375l0,3.515625q0,0.234375-0.224609375,0.419921875t-0.537109375,0.302734375t-0.654296875,0.15625t-0.615234375,0.0390625t-0.64453125-0.0390625t-0.6640625-0.15625t-0.517578125-0.29296875t-0.224609375-0.4296875l0-0.83984375q0.078125-3.7109375,0.17578125-7.353515625t0.1953125-7.314453125q-2.12890625,0.078125-4.326171875,0.09765625t-4.365234375,0.09765625q0.234375,2.75390625,0.537109375,5.498046875t0.634765625,5.498046875q0,0.234375-0.224609375,0.419921875t-0.52734375,0.302734375t-0.64453125,0.15625t-0.615234375,0.0390625q-0.56640625,0-1.240234375-0.1953125t-0.751953125-0.72265625q-0.234375-2.0703125-0.439453125-4.5703125t-0.361328125-5.107421875t-0.244140625-5.107421875t-0.087890625-4.53125q0-0.48828125-0.0390625-1.005859375z M217.6083984375,110.99609375q0-0.390625,0.087890625-1.03515625t0.205078125-1.279296875t0.2734375-1.181640625t0.37109375-0.703125q0.15625-0.15625,0.537109375-0.3125t0.80078125-0.224609375t0.78125,0.05859375t0.439453125,0.517578125q-0.2734375,0.3515625-0.498046875,1.201171875t-0.341796875,1.884765625q-0.09765625,0.87890625-0.09765625,1.81640625l0,0.33203125q0.01953125,1.09375,0.1953125,2.01171875t0.537109375,1.513671875t1.005859375,0.595703125q1.3671875,0,2.5-1.259765625t2.01171875-3.076171875t1.54296875-3.857421875t1.1328125-3.564453125q0.1171875-0.44921875,0.556640625-0.60546875t0.947265625-0.107421875t0.908203125,0.244140625t0.478515625,0.46875q-0.390625,3.28125-0.615234375,6.5625t-0.224609375,6.6015625q0,0.64453125,0.05859375,1.181640625t-0.05859375,0.91796875t-0.517578125,0.60546875t-1.279296875,0.224609375q-0.1953125,0-0.498046875-0.0390625t-0.625-0.126953125t-0.546875-0.263671875t-0.224609375-0.41015625q0-1.4453125,0.107421875-2.96875t0.302734375-2.94921875q-0.52734375,0.76171875-1.162109375,1.513671875t-1.396484375,1.357421875t-1.640625,0.966796875t-1.89453125,0.361328125q-1.4453125,0-2.275390625-0.68359375t-1.25-1.708984375t-0.52734375-2.236328125t-0.107421875-2.34375z M235.980859375,107.03125q0-1.3671875,0.126953125-3.5546875t0.302734375-4.51171875t0.439453125-4.404296875t0.576171875-3.193359375q0.1171875-0.48828125,0.556640625-0.5859375t0.888671875-0.09765625q0.60546875,0,1.044921875,0.21484375t0.439453125,0.9375q0,3.5546875-0.439453125,7.119140625t-0.478515625,7.119140625q0.60546875-0.91796875,1.5625-1.376953125t2.03125-0.458984375q1.484375,0,2.55859375,0.60546875t1.73828125,1.5625t0.986328125,2.216796875t0.322265625,2.568359375q0,0.72265625-0.146484375,1.806640625t-0.439453125,2.28515625t-0.7421875,2.3828125t-1.064453125,2.119140625t-1.416015625,1.513671875t-1.7578125,0.576171875q-0.1953125,0-0.517578125-0.05859375t-0.64453125-0.17578125t-0.537109375-0.302734375t-0.21484375-0.458984375q0-0.3125,0.380859375-0.439453125t0.615234375-0.126953125q0.87890625-0.390625,1.5625-1.630859375t1.142578125-2.724609375t0.693359375-2.939453125t0.234375-2.373046875q0-0.52734375-0.15625-1.40625t-0.478515625-1.73828125t-0.87890625-1.484375t-1.318359375-0.625q-0.91796875,0-1.46484375,0.947265625t-0.859375,2.20703125t-0.419921875,2.59765625t-0.107421875,2.099609375q0,0.48828125,0.166015625,0.966796875t0.380859375,0.95703125t0.380859375,0.9765625t0.166015625,0.986328125q0,0.234375-0.205078125,0.390625t-0.478515625,0.25390625t-0.576171875,0.126953125t-0.458984375,0.029296875q-1.11328125,0-1.54296875-0.52734375t-0.7421875-1.484375q-0.68359375-2.16796875-0.947265625-4.404296875t-0.263671875-4.482421875z"/><path fill="#" d=""/></svg>
